<svg width="336" height="279" viewBox="0 0 336 279" fill="none" xmlns="http://www.w3.org/2000/svg">
<path d="M146.5 15H24L122 42L146.5 114V15Z" fill="#C655F9"/>
<path opacity="0.76" d="M276 53L313 88H294.836L276 53Z" fill="#C655F9"/>
<path opacity="0.76" d="M226.435 92L226 90.6438L268.174 59L276 90.6438L226.435 92Z" fill="#9D36CB"/>
<path opacity="0.76" d="M149 148L228.096 171L273 148H149Z" fill="#C655F9"/>
<path opacity="0.76" d="M158 162.52L107.418 256H107L147.549 150L158 162.52Z" fill="#9D36CB"/>
<path opacity="0.76" d="M209.771 72.0284L151 9L229.226 144H273L209.771 72.0284Z" fill="#9D36CB"/>
<path d="M156.101 13.3008H16L103.692 73.7109L145.354 147.644L99.2929 268.553L166.848 214.432L170.303 204.452L281.232 143.806L277.394 90.4523H320L277.394 50.9169L226.727 86.6139L156.101 13.3008Z" stroke="white" stroke-width="6"/>
<path d="M149 12V147.879L275.667 147.126" stroke="white" stroke-width="6"/>
<path d="M226 86L280.121 146.263" stroke="white" stroke-width="6"/>
<path d="M147 144.318L172.423 204.15" stroke="white" stroke-width="8"/>
<path d="M278.152 93.3426L269.703 59" stroke="white" stroke-width="6"/>
</svg>
